<svg width="90" height="91" viewBox="0 0 90 91" fill="none" xmlns="http://www.w3.org/2000/svg">
<rect x="0.5" y="1" width="89" height="89" rx="9.5" fill="#68708C" fill-opacity="0.05"/>
<rect x="0.5" y="1" width="89" height="89" rx="9.5" stroke="#E1E3EA"/>
<path opacity="0.4" d="M47.9167 19.9792H30.4167C20.4417 19.9792 16.5625 23.8584 16.5625 33.8334V57.1667C16.5625 63.8751 20.2083 71.0209 30.4167 71.0209H47.9167C57.8917 71.0209 61.7708 67.1418 61.7708 57.1667V33.8334C61.7708 23.8584 57.8917 19.9792 47.9167 19.9792Z" fill="#40455C"/>
<path d="M43.5419 43.6918C46.5703 43.6918 49.0253 41.2368 49.0253 38.2084C49.0253 35.1801 46.5703 32.7251 43.5419 32.7251C40.5136 32.7251 38.0586 35.1801 38.0586 38.2084C38.0586 41.2368 40.5136 43.6918 43.5419 43.6918Z" fill="#40455C"/>
<path d="M73.1462 28.4959C71.9504 27.8834 69.4421 27.1834 66.0296 29.575L61.7129 32.6084C61.7421 33.0167 61.7712 33.3959 61.7712 33.8334V57.1667C61.7712 57.6042 61.7129 57.9834 61.7129 58.3917L66.0296 61.425C67.8379 62.7084 69.4129 63.1167 70.6671 63.1167C71.7462 63.1167 72.5921 62.825 73.1462 62.5334C74.3421 61.9209 76.3546 60.2584 76.3546 56.0875V34.9417C76.3546 30.7709 74.3421 29.1084 73.1462 28.4959Z" fill="#40455C"/>
</svg>
