<svg width="90" height="91" viewBox="0 0 90 91" fill="none" xmlns="http://www.w3.org/2000/svg">
<rect x="0.5" y="1" width="89" height="89" rx="9.5" fill="#68708C" fill-opacity="0.05"/>
<rect x="0.5" y="1" width="89" height="89" rx="9.5" stroke="#E1E3EA"/>
<path opacity="0.4" d="M57.2215 16.3333H32.7798C22.1632 16.3333 15.834 22.6624 15.834 33.2791V57.6916C15.834 68.3374 22.1632 74.6666 32.7798 74.6666H57.1923C67.809 74.6666 74.1382 68.3374 74.1382 57.7208V33.2791C74.1673 22.6624 67.8382 16.3333 57.2215 16.3333Z" fill="#40455C"/>
<path d="M55.2079 40.0458C58.2363 40.0458 60.6913 37.5908 60.6913 34.5624C60.6913 31.5341 58.2363 29.0791 55.2079 29.0791C52.1796 29.0791 49.7246 31.5341 49.7246 34.5624C49.7246 37.5908 52.1796 40.0458 55.2079 40.0458Z" fill="#40455C"/>
<path d="M34.7919 40.0458C37.8203 40.0458 40.2753 37.5908 40.2753 34.5624C40.2753 31.5341 37.8203 29.0791 34.7919 29.0791C31.7636 29.0791 29.3086 31.5341 29.3086 34.5624C29.3086 37.5908 31.7636 40.0458 34.7919 40.0458Z" fill="#40455C"/>
<path d="M55.4991 48.1833H34.4991C32.4574 48.1833 30.7949 49.8458 30.7949 51.9167C30.7949 59.7625 37.1824 66.15 45.0283 66.15C52.8741 66.15 59.2616 59.7625 59.2616 51.9167C59.2324 49.875 57.5408 48.1833 55.4991 48.1833Z" fill="#40455C"/>
</svg>
