<svg width="100" height="100" viewBox="0 0 100 100" fill="none" xmlns="http://www.w3.org/2000/svg">
<g clip-path="url(#clip0_990_5062)">
<path d="M90.875 16.4166C84.4583 32.4166 68.375 54.1666 54.9167 64.9583L46.7083 71.5416C45.6667 72.2916 44.625 72.9583 43.4583 73.4167C43.4583 72.6667 43.4167 71.8333 43.2917 71.0416C42.8333 67.5416 41.25 64.2916 38.4583 61.5C35.625 58.6666 32.1667 57 28.625 56.5416C27.7917 56.5 26.9583 56.4166 26.125 56.5C26.5833 55.2083 27.2917 54 28.1667 53L34.6667 44.7916C45.4167 31.3333 67.25 15.1666 83.2083 8.79164C85.6667 7.87498 88.0417 8.54164 89.5417 10.0833C91.125 11.625 91.875 14 90.875 16.4166Z" stroke="#40455C" stroke-width="3" stroke-linecap="round" stroke-linejoin="round"/>
<path d="M43.4587 73.4166C43.4587 77.9999 41.7087 82.3749 38.417 85.7083C35.8753 88.2499 32.417 89.9999 28.292 90.5416L18.042 91.6666C12.4587 92.2916 7.66699 87.5416 8.33366 81.8749L9.45866 71.6249C10.4587 62.4999 18.0837 56.6666 26.167 56.4999C27.0003 56.4583 27.8753 56.4999 28.667 56.5416C32.2087 56.9999 35.667 58.6249 38.5003 61.4999C41.292 64.2916 42.8753 67.5416 43.3337 71.0416C43.3753 71.8333 43.4587 72.6249 43.4587 73.4166Z" stroke="#40455C" stroke-width="3" stroke-linecap="round" stroke-linejoin="round"/>
<path d="M59.3333 60.2916C59.3333 49.4166 50.5 40.5833 39.625 40.5833" stroke="#40455C" stroke-width="3" stroke-linecap="round" stroke-linejoin="round"/>
<path d="M83.8333 53.0417L86.9167 56.0834C93.125 62.2917 93.125 68.4167 86.9167 74.6251L74.5833 86.9584C68.4583 93.0834 62.25 93.0834 56.125 86.9584" stroke="#40455C" stroke-width="3" stroke-linecap="round"/>
<path d="M12.958 43.7917C6.83301 37.5834 6.83301 31.4584 12.958 25.2501L25.2913 12.9167C31.4163 6.79175 37.6247 6.79175 43.7497 12.9167L46.833 16.0001" stroke="#40455C" stroke-width="3" stroke-linecap="round"/>
<path d="M46.8747 16.0417L31.458 31.4584" stroke="#40455C" stroke-width="3" stroke-linecap="round"/>
<path d="M83.8333 53.0417L71.5 65.3334" stroke="#40455C" stroke-width="3" stroke-linecap="round"/>
</g>
<defs>
<clipPath id="clip0_990_5062">
<rect width="100" height="100" fill="white"/>
</clipPath>
</defs>
</svg>
