<svg width="90" height="91" viewBox="0 0 90 91" fill="none" xmlns="http://www.w3.org/2000/svg">
<rect x="0.5" y="1" width="89" height="89" rx="9.5" fill="#68708C" fill-opacity="0.05"/>
<rect x="0.5" y="1" width="89" height="89" rx="9.5" stroke="#E1E3EA"/>
<path d="M60.4877 43.3125C60.546 44.0708 60.2835 44.8583 59.7002 45.4416L42.1418 63C38.2627 66.8792 34.3543 66.8792 30.446 63L18.7502 51.3041C16.7668 49.2916 15.7752 47.2791 15.8335 45.2666H16.0377L60.1376 43.3417L60.4877 43.3125Z" fill="#40455C"/>
<path opacity="0.4" d="M59.6997 41.5333L38.2622 20.0957L35.7247 17.5582C34.8788 16.7124 33.4788 16.7124 32.633 17.5582C31.7872 18.404 31.7872 19.804 32.633 20.6499L35.1705 23.1873L18.7497 39.6082C16.883 41.4749 15.8913 43.3707 15.833 45.2665H16.0372L60.1372 43.3416L60.4872 43.3124C60.458 42.6707 60.1663 42 59.6997 41.5333Z" fill="#40455C"/>
<path d="M56.6667 76.8542H18.75C17.5542 76.8542 16.5625 75.8626 16.5625 74.6667C16.5625 73.4709 17.5542 72.4792 18.75 72.4792H56.6667C57.8625 72.4792 58.8542 73.4709 58.8542 74.6667C58.8542 75.8626 57.8625 76.8542 56.6667 76.8542Z" fill="#40455C"/>
<path d="M66.4375 53.6083C65.6792 52.7917 64.2792 52.7917 63.5208 53.6083C62.6167 54.6 58.125 59.6749 58.125 63.4957C58.125 67.2874 61.1875 70.35 64.9792 70.35C68.7708 70.35 71.8333 67.2874 71.8333 63.4957C71.8333 59.6749 67.3417 54.6 66.4375 53.6083Z" fill="#40455C"/>
</svg>
