<svg width="100" height="100" viewBox="0 0 100 100" fill="none" xmlns="http://www.w3.org/2000/svg">
<path d="M43.458 76.5417C42.833 76.5417 42.2496 76.375 41.708 76C40.833 75.4167 40.333 74.4583 40.333 73.4167C40.333 72.7917 40.2913 72.125 40.208 71.4583C39.833 68.5 38.4996 65.9167 36.2496 63.6667C33.9996 61.4167 31.208 60 28.208 59.625C27.708 59.5833 26.9996 59.5417 26.333 59.5833C25.2496 59.6667 24.2496 59.2083 23.6246 58.3333C22.9996 57.5 22.833 56.375 23.1663 55.375C23.7913 53.6667 24.708 52.125 25.7913 50.875L32.208 42.7917C43.2496 29 65.6246 12.4167 81.9996 5.83333C85.4996 4.5 89.1663 5.29167 91.708 7.79167C94.333 10.4167 95.1246 14.1667 93.7496 17.5833C87.1663 34 70.6246 56.3333 56.833 67.375L48.6246 73.9583C47.083 75.0833 45.833 75.7917 44.583 76.2917C44.2496 76.4583 43.833 76.5417 43.458 76.5417ZM31.4163 53.9167C34.9163 54.8333 38.0413 56.6667 40.6663 59.2917C43.2913 61.875 45.0413 64.875 45.9163 68.2083L52.958 62.5417C66.0413 52.0833 81.7496 30.875 87.958 15.2917C88.583 13.75 87.708 12.6667 87.2913 12.2917C86.9996 12 85.9163 11.0833 84.2496 11.7083C68.7496 17.9583 47.5413 33.6667 37.0413 46.75L31.4163 53.9167Z" fill="#40455C"/>
<path d="M17.0003 94.7917C13.8753 94.7917 10.8753 93.5417 8.62534 91.2917C6.042 88.7083 4.792 85.125 5.20867 81.4583L6.33367 71.2083C7.417 61.0417 15.7503 53.5 26.0837 53.2917C26.8753 53.25 27.917 53.2917 28.8753 53.375C33.417 53.9583 37.4587 56 40.7087 59.25C43.917 62.4583 45.8337 66.2917 46.417 70.5833C46.542 71.5 46.6253 72.5 46.6253 73.375C46.6253 78.875 44.5003 84 40.667 87.875C37.4587 91.0417 33.3337 93 28.667 93.5833L18.3753 94.7083C17.917 94.75 17.4587 94.7917 17.0003 94.7917ZM26.8753 59.5833C26.7087 59.5833 26.5003 59.5833 26.3337 59.5833C20.042 59.7083 13.3753 64 12.542 71.9167L11.417 82.1667C11.2087 83.9167 11.8337 85.625 13.042 86.875C14.2503 88.0833 15.9587 88.7083 17.667 88.5L27.917 87.375C31.1253 86.9583 34.0003 85.625 36.167 83.4583C38.8337 80.7917 40.3337 77.2083 40.3337 73.375C40.3337 72.75 40.292 72.0833 40.2087 71.4167C39.8337 68.4583 38.5003 65.875 36.2503 63.625C34.0003 61.375 31.2087 59.9583 28.2087 59.5833C27.8753 59.5833 27.3753 59.5833 26.8753 59.5833Z" fill="#40455C"/>
<path d="M59.3333 63.4167C57.625 63.4167 56.2083 62 56.2083 60.2917C56.2083 51.125 48.75 43.7083 39.625 43.7083C37.9167 43.7083 36.5 42.2917 36.5 40.5833C36.5 38.875 37.875 37.4583 39.5833 37.4583C52.1667 37.4583 62.4167 47.7083 62.4167 60.2917C62.4583 62.0417 61.0417 63.4167 59.3333 63.4167Z" fill="#40455C"/>
<path d="M65.3333 94.7083C61.4583 94.7083 57.5833 92.875 53.875 89.1667C52.6667 87.9583 52.6667 85.9583 53.875 84.75C55.0833 83.5417 57.0833 83.5417 58.2917 84.75C63.2083 89.6667 67.4167 89.6667 72.3333 84.75L84.6667 72.4167C89.625 67.4583 89.625 63.25 84.6667 58.3333L81.5833 55.2917C80.375 54.0833 80.3333 52.0833 81.5417 50.875C82.75 49.625 84.75 49.625 85.9583 50.8333L89.0417 53.875C96.4583 61.2917 96.4583 69.4167 89.0417 76.8333L76.7083 89.1667C73.0833 92.8333 69.2083 94.7083 65.3333 94.7083Z" fill="#40455C"/>
<path d="M12.9583 46.9167C12.1667 46.9167 11.3333 46.625 10.75 46C3.41667 38.625 3.41667 30.4583 10.75 23.0833L23.0833 10.75C30.4167 3.41667 38.6667 3.41667 46 10.75L49.0833 13.8333C50.2917 15.0417 50.2917 17.0417 49.0833 18.25C47.875 19.4583 45.875 19.4583 44.6667 18.25L41.5417 15.1667C36.625 10.25 32.375 10.25 27.5 15.1667L15.1667 27.5C10.25 32.4583 10.25 36.6667 15.1667 41.625C16.375 42.8333 16.375 44.8333 15.1667 46.0417C14.5417 46.625 13.75 46.9167 12.9583 46.9167Z" fill="#40455C"/>
<path d="M31.4583 34.5833C30.6667 34.5833 29.875 34.2917 29.25 33.6667C28.0417 32.4583 28.0417 30.4583 29.25 29.25L44.6667 13.8333C45.875 12.625 47.875 12.625 49.0833 13.8333C50.2917 15.0417 50.2917 17.0417 49.0833 18.25L33.6667 33.6667C33.0417 34.2917 32.25 34.5833 31.4583 34.5833Z" fill="#40455C"/>
<path d="M71.5003 68.4583C70.7087 68.4583 69.917 68.1667 69.292 67.5417C68.0837 66.3333 68.0837 64.3333 69.292 63.125L81.6253 50.7917C82.8337 49.5833 84.8337 49.5833 86.042 50.7917C87.2503 52 87.2503 54 86.042 55.2083L73.7087 67.5417C73.1253 68.1667 72.3337 68.4583 71.5003 68.4583Z" fill="#40455C"/>
</svg>
