<svg width="100" height="100" viewBox="0 0 100 100" fill="none" xmlns="http://www.w3.org/2000/svg">
<path d="M49.9997 94.7917C25.2913 94.7917 5.20801 74.7084 5.20801 50C5.20801 25.2917 25.2913 5.20834 49.9997 5.20834C74.708 5.20834 94.7914 25.2917 94.7914 50C94.7914 74.7084 74.708 94.7917 49.9997 94.7917ZM49.9997 11.4583C28.7497 11.4583 11.458 28.75 11.458 50C11.458 71.25 28.7497 88.5417 49.9997 88.5417C71.2497 88.5417 88.5414 71.25 88.5414 50C88.5414 28.75 71.2497 11.4583 49.9997 11.4583Z" fill="#40455C"/>
<path d="M37.5 90.625H33.3333C31.625 90.625 30.2083 89.2083 30.2083 87.5C30.2083 85.7917 31.5417 84.4167 33.25 84.375C26.7083 62.0417 26.7083 37.9583 33.25 15.625C31.5417 15.5833 30.2083 14.2083 30.2083 12.5C30.2083 10.7917 31.625 9.375 33.3333 9.375H37.5C38.5 9.375 39.4583 9.875 40.0417 10.6667C40.625 11.5 40.7917 12.5417 40.4583 13.5C32.625 37.0417 32.625 62.9583 40.4583 86.5417C40.7917 87.5 40.625 88.5417 40.0417 89.375C39.4583 90.125 38.5 90.625 37.5 90.625Z" fill="#40455C"/>
<path d="M62.5 90.625C62.1667 90.625 61.8334 90.5833 61.5 90.4583C59.875 89.9167 58.9584 88.125 59.5417 86.5C67.375 62.9583 67.375 37.0417 59.5417 13.4583C59 11.8333 59.875 10.0417 61.5 9.5C63.1667 8.95833 64.9167 9.83333 65.4584 11.4583C73.75 36.2917 73.75 63.625 65.4584 88.4167C65.0417 89.7917 63.7917 90.625 62.5 90.625Z" fill="#40455C"/>
<path d="M50 71.6667C38.375 71.6667 26.7917 70.0417 15.625 66.75C15.5833 68.4167 14.2083 69.7917 12.5 69.7917C10.7917 69.7917 9.375 68.375 9.375 66.6667V62.5C9.375 61.5 9.875 60.5417 10.6667 59.9583C11.5 59.375 12.5417 59.2083 13.5 59.5417C37.0417 67.375 63 67.375 86.5417 59.5417C87.5 59.2083 88.5417 59.375 89.375 59.9583C90.2083 60.5417 90.6667 61.5 90.6667 62.5V66.6667C90.6667 68.375 89.25 69.7917 87.5417 69.7917C85.8333 69.7917 84.4583 68.4583 84.4167 66.75C73.2083 70.0417 61.625 71.6667 50 71.6667Z" fill="#40455C"/>
<path d="M86.5875 40.2242L86.5876 40.2241L86.5787 40.2211C62.986 32.3708 36.9727 32.3707 13.38 40.2208C11.8424 40.7201 10.2367 39.9137 9.73812 38.4245C9.27766 36.8829 10.0885 35.2756 11.5788 34.7788L11.5789 34.7788C36.3609 26.5043 63.6386 26.5043 88.3788 34.7787L88.379 34.7788C89.8761 35.2779 90.7152 36.9277 90.1811 38.4155L90.1785 38.4228L90.1763 38.4303C89.8354 39.6046 88.6915 40.375 87.4997 40.375C87.1876 40.375 86.8856 40.336 86.5875 40.2242Z" fill="#40455C" stroke="#40455C" stroke-width="0.5"/>
</svg>
