<svg width="21" height="20" viewBox="0 0 21 20" fill="none" xmlns="http://www.w3.org/2000/svg">
<path d="M10.5 0C4.98578 0 0.5 4.48578 0.5 10C0.5 15.5142 4.98578 20 10.5 20C16.0142 20 20.5 15.5142 20.5 10C20.5 4.48578 16.0142 0 10.5 0Z" fill="#E8FFF3"/>
<path d="M10.5667 1.06667C5.64063 1.06667 1.63333 5.07396 1.63333 10C1.63333 14.926 5.64063 18.9333 10.5667 18.9333C15.4927 18.9333 19.5 14.926 19.5 10C19.5 5.07396 15.4927 1.06667 10.5667 1.06667Z" fill="#47BE7D"/>
<path d="M15.5684 7.88085L10.1517 13.2974C9.98916 13.4599 9.77585 13.5417 9.56253 13.5417C9.34921 13.5417 9.13589 13.4599 8.97339 13.2974L6.2651 10.5891C5.93918 10.2634 5.93918 9.73663 6.2651 9.41085C6.59088 9.08492 7.11746 9.08492 7.44339 9.41085L9.56253 11.53L14.3901 6.70257C14.7159 6.37664 15.2425 6.37664 15.5684 6.70257C15.8942 7.02835 15.8942 7.55493 15.5684 7.88085Z" fill="#FAFAFA"/>
</svg>
