<svg width="12" height="12" viewBox="0 0 12 12" fill="none" xmlns="http://www.w3.org/2000/svg">
<path d="M6 0C2.69147 0 0 2.69147 0 6C0 9.30853 2.69147 12 6 12C9.30853 12 12 9.30853 12 6C12 2.69147 9.30853 0 6 0Z" fill="#E8FFF3"/>
<path d="M6.04 0.64C3.08438 0.64 0.68 3.04438 0.68 6C0.68 8.95562 3.08438 11.36 6.04 11.36C8.99562 11.36 11.4 8.95562 11.4 6C11.4 3.04438 8.99562 0.64 6.04 0.64Z" fill="#47BE7D"/>
<path d="M9.04103 4.72851L5.791 7.97845C5.6935 8.07595 5.56551 8.12503 5.43752 8.12503C5.30953 8.12503 5.18154 8.07595 5.08403 7.97845L3.45906 6.35348C3.2635 6.15802 3.2635 5.84198 3.45906 5.64651C3.65453 5.45095 3.97048 5.45095 4.16603 5.64651L5.43752 6.918L8.33406 4.02154C8.52953 3.82599 8.84548 3.82599 9.04103 4.02154C9.2365 4.21701 9.2365 4.53296 9.04103 4.72851Z" fill="#FAFAFA"/>
</svg>
