<svg width="100" height="100" viewBox="0 0 100 100" fill="none" xmlns="http://www.w3.org/2000/svg">
<path d="M91.6667 62.5C91.6667 78.625 78.625 91.6667 62.5 91.6667L66.875 84.375" stroke="#474E66" stroke-width="3" stroke-linecap="round" stroke-linejoin="round"/>
<path d="M8.3335 37.5C8.3335 21.375 21.3752 8.33337 37.5002 8.33337L33.1252 15.625" stroke="#474E66" stroke-width="3" stroke-linecap="round" stroke-linejoin="round"/>
<path d="M57.0835 18.5417L73.6668 28.125L90.0835 18.5835" stroke="#474E66" stroke-width="3" stroke-linecap="round" stroke-linejoin="round"/>
<path d="M73.667 45.0834V28.0834" stroke="#474E66" stroke-width="3" stroke-linecap="round" stroke-linejoin="round"/>
<path d="M69.75 9.20837L59.75 14.7499C57.5 15.9999 55.625 19.1665 55.625 21.7498V32.3333C55.625 34.9167 57.4583 38.0833 59.75 39.3333L69.75 44.875C71.875 46.0834 75.375 46.0834 77.5416 44.875L87.5416 39.3333C89.7916 38.0833 91.6666 34.9167 91.6666 32.3333V21.7498C91.6666 19.1665 89.8333 15.9999 87.5416 14.7499L77.5416 9.20837C75.4166 8.04171 71.9167 8.04171 69.75 9.20837Z" stroke="#474E66" stroke-width="3" stroke-linecap="round" stroke-linejoin="round"/>
<path d="M9.79199 64.375L26.3337 73.9583L42.792 64.4167" stroke="#474E66" stroke-width="3" stroke-linecap="round" stroke-linejoin="round"/>
<path d="M26.3335 90.9167V73.9166" stroke="#474E66" stroke-width="3" stroke-linecap="round" stroke-linejoin="round"/>
<path d="M22.4585 55.0416L12.4585 60.5831C10.2085 61.8331 8.3335 64.9997 8.3335 67.5831V78.1666C8.3335 80.7499 10.1669 83.9165 12.4585 85.1665L22.4585 90.7083C24.5835 91.9166 28.0835 91.9166 30.2501 90.7083L40.2502 85.1665C42.5002 83.9165 44.3751 80.7499 44.3751 78.1666V67.5831C44.3751 64.9997 42.5418 61.8331 40.2502 60.5831L30.2501 55.0416C28.0835 53.875 24.5835 53.875 22.4585 55.0416Z" stroke="#474E66" stroke-width="3" stroke-linecap="round" stroke-linejoin="round"/>
</svg>
