<svg width="44" height="44" viewBox="0 0 44 44" fill="none" xmlns="http://www.w3.org/2000/svg">
<rect x="0.5" y="0.5" width="43" height="43" rx="21.5" stroke="#40455C"/>
<path d="M17.48 28.35L20.58 30.75C20.98 31.15 21.88 31.35 22.48 31.35H26.28C27.48 31.35 28.78 30.45 29.08 29.25L31.48 21.95C31.98 20.55 31.08 19.35 29.58 19.35H25.58C24.98 19.35 24.48 18.85 24.58 18.15L25.08 14.95C25.28 14.05 24.68 13.05 23.78 12.75C22.98 12.45 21.98 12.85 21.58 13.45L17.48 19.55" stroke="#292D32" stroke-width="1.5" stroke-miterlimit="10"/>
<path d="M12.38 28.35V18.55C12.38 17.15 12.98 16.65 14.38 16.65H15.38C16.78 16.65 17.38 17.15 17.38 18.55V28.35C17.38 29.75 16.78 30.25 15.38 30.25H14.38C12.98 30.25 12.38 29.75 12.38 28.35Z" stroke="#292D32" stroke-width="1.5" stroke-linecap="round" stroke-linejoin="round"/>
</svg>
