<svg width="100" height="101" viewBox="0 0 100 101" fill="none" xmlns="http://www.w3.org/2000/svg">
<path d="M41.6663 71.2916H25.8747C11.833 71.2916 8.33301 67.7916 8.33301 53.75V28.75C8.33301 14.7083 11.833 11.2083 25.8747 11.2083H69.7497C83.7913 11.2083 87.2913 14.7083 87.2913 28.75" stroke="#40455C" stroke-width="6" stroke-linecap="round" stroke-linejoin="round"/>
<path d="M41.667 90.125V71.2916" stroke="#40455C" stroke-width="6" stroke-linecap="round" stroke-linejoin="round"/>
<path d="M8.33301 54.6249H41.6663" stroke="#40455C" stroke-width="6" stroke-linecap="round" stroke-linejoin="round"/>
<path d="M28.083 90.1249H41.6663" stroke="#40455C" stroke-width="6" stroke-linecap="round" stroke-linejoin="round"/>
<path d="M91.6663 54V77.7916C91.6663 87.6666 89.208 90.125 79.333 90.125H64.5413C54.6663 90.125 52.208 87.6666 52.208 77.7916V54C52.208 44.125 54.6663 41.6666 64.5413 41.6666H79.333C89.208 41.6666 91.6663 44.125 91.6663 54Z" stroke="#40455C" stroke-width="6" stroke-linecap="round" stroke-linejoin="round"/>
<path d="M71.8524 76.7083H71.8899" stroke="#40455C" stroke-width="6" stroke-linecap="round" stroke-linejoin="round"/>
</svg>
