<svg width="44" height="44" viewBox="0 0 44 44" fill="none" xmlns="http://www.w3.org/2000/svg">
<rect x="0.5" y="0.5" width="43" height="43" rx="21.5" stroke="#40455C"/>
<path d="M28 17.16C27.94 17.15 27.87 17.15 27.81 17.16C26.43 17.11 25.33 15.98 25.33 14.58C25.33 13.15 26.48 12 27.91 12C29.34 12 30.49 13.16 30.49 14.58C30.48 15.98 29.38 17.11 28 17.16Z" stroke="#40455C" stroke-width="1.5" stroke-linecap="round" stroke-linejoin="round"/>
<path d="M26.9699 24.4402C28.3399 24.6702 29.8499 24.4302 30.9099 23.7202C32.3199 22.7802 32.3199 21.2402 30.9099 20.3002C29.8399 19.5902 28.3099 19.3502 26.9399 19.5902" stroke="#40455C" stroke-width="1.5" stroke-linecap="round" stroke-linejoin="round"/>
<path d="M15.97 17.16C16.03 17.15 16.1 17.15 16.16 17.16C17.54 17.11 18.64 15.98 18.64 14.58C18.64 13.15 17.49 12 16.06 12C14.63 12 13.48 13.16 13.48 14.58C13.49 15.98 14.59 17.11 15.97 17.16Z" stroke="#40455C" stroke-width="1.5" stroke-linecap="round" stroke-linejoin="round"/>
<path d="M16.9999 24.4402C15.6299 24.6702 14.1199 24.4302 13.0599 23.7202C11.6499 22.7802 11.6499 21.2402 13.0599 20.3002C14.1299 19.5902 15.6599 19.3502 17.0299 19.5902" stroke="#40455C" stroke-width="1.5" stroke-linecap="round" stroke-linejoin="round"/>
<path d="M22.0001 24.6302C21.9401 24.6202 21.8701 24.6202 21.8101 24.6302C20.4301 24.5802 19.3301 23.4502 19.3301 22.0502C19.3301 20.6202 20.4801 19.4702 21.9101 19.4702C23.3401 19.4702 24.4901 20.6302 24.4901 22.0502C24.4801 23.4502 23.3801 24.5902 22.0001 24.6302Z" stroke="#40455C" stroke-width="1.5" stroke-linecap="round" stroke-linejoin="round"/>
<path d="M19.09 27.7804C17.68 28.7204 17.68 30.2603 19.09 31.2003C20.69 32.2703 23.31 32.2703 24.91 31.2003C26.32 30.2603 26.32 28.7204 24.91 27.7804C23.32 26.7204 20.69 26.7204 19.09 27.7804Z" stroke="#40455C" stroke-width="1.5" stroke-linecap="round" stroke-linejoin="round"/>
</svg>
