<svg width="90" height="91" viewBox="0 0 90 91" fill="none" xmlns="http://www.w3.org/2000/svg">
<rect x="0.5" y="1" width="89" height="89" rx="9.5" fill="#68708C" fill-opacity="0.05"/>
<rect x="0.5" y="1" width="89" height="89" rx="9.5" stroke="#E1E3EA"/>
<path opacity="0.4" d="M57.2215 16.3333H32.7798C22.1632 16.3333 15.834 22.6624 15.834 33.2791V57.6916C15.834 68.3374 22.1632 74.6666 32.7798 74.6666H57.1923C67.809 74.6666 74.1382 68.3374 74.1382 57.7208V33.2791C74.1673 22.6624 67.8382 16.3333 57.2215 16.3333Z" fill="#40455C"/>
<path d="M31.3806 54.95C30.914 54.95 30.4473 54.8042 30.039 54.4834C29.0765 53.7542 28.9015 52.3834 29.6306 51.4209L36.5723 42.4084C37.4181 41.3292 38.614 40.6292 39.9848 40.4542C41.3265 40.2792 42.6973 40.6584 43.7765 41.5042L49.114 45.7042C49.3181 45.8792 49.5223 45.8792 49.6681 45.85C49.7848 45.85 49.989 45.7917 50.164 45.5584L56.9015 36.8667C57.6306 35.9042 59.0306 35.7292 59.964 36.4875C60.9265 37.2167 61.1015 38.5875 60.3431 39.55L53.6056 48.2417C52.7598 49.3209 51.564 50.0209 50.1931 50.1667C48.8223 50.3417 47.4806 49.9625 46.4015 49.1167L41.064 44.9167C40.8598 44.7417 40.6265 44.7417 40.5098 44.7709C40.3931 44.7709 40.189 44.8292 40.014 45.0625L33.0723 54.075C32.6931 54.6584 32.0515 54.95 31.3806 54.95Z" fill="#40455C"/>
</svg>
