<svg width="90" height="91" viewBox="0 0 90 91" fill="none" xmlns="http://www.w3.org/2000/svg">
<rect x="0.5" y="1" width="89" height="89" rx="9.5" fill="#68708C" fill-opacity="0.05"/>
<rect x="0.5" y="1" width="89" height="89" rx="9.5" stroke="#E1E3EA"/>
<path opacity="0.4" d="M58.9998 16.3333H28.1123C21.3456 16.3333 15.8623 21.8166 15.8623 28.5541V46.5791V47.1333C15.8623 53.8999 21.3456 59.3541 28.0831 59.3541H38.5831C40.1873 59.3541 41.4998 60.6666 41.4998 62.2708V64.6624C41.4998 66.2666 40.1873 67.5791 38.5831 67.5791H32.0206C30.8831 67.5791 29.9498 68.5124 29.9498 69.6499C29.9498 70.7874 30.8831 71.7208 32.0206 71.7208H55.1498C56.2873 71.7208 57.2206 70.7874 57.2206 69.6499C57.2206 68.5124 56.2873 67.5791 55.1498 67.5791H48.5873C46.9831 67.5791 45.6706 66.2666 45.6706 64.6624V62.2708C45.6706 60.6666 46.9831 59.3541 48.5873 59.3541H58.9998C65.7665 59.3541 71.2206 53.8708 71.2206 47.1333V46.5791V28.5541C71.2206 21.8166 65.7373 16.3333 58.9998 16.3333Z" fill="#40455C"/>
<path d="M67.2832 38.2083H51.854C46.8082 38.2083 44.9707 40.0458 44.9707 45.1499V67.6958C44.9707 72.8291 46.779 74.6374 51.854 74.6374H67.2832C72.329 74.6374 74.1665 72.7999 74.1665 67.6958V45.1499C74.1665 40.0166 72.3582 38.2083 67.2832 38.2083ZM59.5832 69.7666C57.804 69.7666 56.3749 68.3374 56.3749 66.5582C56.3749 64.7791 57.804 63.3499 59.5832 63.3499C61.3624 63.3499 62.7915 64.7791 62.7915 66.5582C62.7915 68.3374 61.3624 69.7666 59.5832 69.7666Z" fill="#40455C"/>
<path opacity="0.4" d="M62.7917 66.5584C62.7917 68.3376 61.3625 69.7668 59.5833 69.7668C57.8042 69.7668 56.375 68.3376 56.375 66.5584C56.375 64.7793 57.8042 63.3501 59.5833 63.3501C61.3625 63.3501 62.7917 64.8084 62.7917 66.5584Z" fill="#40455C"/>
</svg>
