<svg width="90" height="91" viewBox="0 0 90 91" fill="none" xmlns="http://www.w3.org/2000/svg">
<rect x="0.5" y="1" width="89" height="89" rx="9.5" fill="#68708C" fill-opacity="0.05"/>
<rect x="0.5" y="1" width="89" height="89" rx="9.5" stroke="#E1E3EA"/>
<rect x="16" y="16.5" width="58" height="58" rx="15" fill="#AAACB7"/>
<g opacity="0.4">
<path fill-rule="evenodd" clip-rule="evenodd" d="M51.7285 31.25C51.7285 30.5942 52.2602 30.0625 52.916 30.0625H59.2493C59.9052 30.0625 60.4368 30.5942 60.4368 31.25V37.5833C60.4368 38.2392 59.9052 38.7708 59.2493 38.7708C58.5935 38.7708 58.0618 38.2392 58.0618 37.5833V32.4375H52.916C52.2602 32.4375 51.7285 31.9058 51.7285 31.25Z" fill="#40455C"/>
<path fill-rule="evenodd" clip-rule="evenodd" d="M60.0897 30.4103C60.5534 30.8741 60.5534 31.6259 60.0897 32.0897L50.5897 41.5897C50.1259 42.0534 49.3741 42.0534 48.9103 41.5897C48.4466 41.1259 48.4466 40.3741 48.9103 39.9103L58.4103 30.4103C58.8741 29.9466 59.6259 29.9466 60.0897 30.4103Z" fill="#40455C"/>
<path fill-rule="evenodd" clip-rule="evenodd" d="M30.75 52.2292C31.4058 52.2292 31.9375 52.7609 31.9375 53.4167V58.5626H37.0833C37.7392 58.5626 38.2708 59.0942 38.2708 59.7501C38.2708 60.4059 37.7392 60.9376 37.0833 60.9376H30.75C30.0942 60.9376 29.5625 60.4059 29.5625 59.7501V53.4167C29.5625 52.7609 30.0942 52.2292 30.75 52.2292Z" fill="#40455C"/>
<path fill-rule="evenodd" clip-rule="evenodd" d="M41.0897 49.4103C41.5534 49.8741 41.5534 50.6259 41.0897 51.0897L31.5897 60.5897C31.1259 61.0534 30.3741 61.0534 29.9103 60.5897C29.4466 60.1259 29.4466 59.3741 29.9103 58.9103L39.4103 49.4103C39.8741 48.9466 40.6259 48.9466 41.0897 49.4103Z" fill="#40455C"/>
</g>
<path fill-rule="evenodd" clip-rule="evenodd" d="M27.9785 45.5001C27.9785 36.1042 35.6035 28.4792 44.9994 28.4792C46.1716 28.4792 47.3263 28.5981 48.4306 28.819C49.0737 28.9476 49.4908 29.5732 49.3622 30.2163C49.2335 30.8594 48.6079 31.2765 47.9648 31.1479C47.0108 30.9571 46.0121 30.8542 44.9994 30.8542C36.9152 30.8542 30.3535 37.4159 30.3535 45.5001C30.3535 46.5123 30.4562 47.4939 30.6464 48.4304C30.777 49.0731 30.3618 49.6999 29.7191 49.8305C29.0764 49.961 28.4495 49.5458 28.319 48.9031C28.0975 47.8129 27.9785 46.6729 27.9785 45.5001Z" fill="#40455C"/>
<path fill-rule="evenodd" clip-rule="evenodd" d="M60.2831 41.1688C60.9262 41.0402 61.5518 41.4572 61.6805 42.1003C61.901 43.2029 62.0202 44.3417 62.0202 45.4999C62.0202 54.8957 54.3952 62.5207 44.9994 62.5207C43.8271 62.5207 42.6724 62.4019 41.5681 62.181C40.925 62.0524 40.508 61.4268 40.6366 60.7837C40.7652 60.1406 41.3908 59.7235 42.0339 59.8521C42.9879 60.0429 43.9866 60.1457 44.9994 60.1457C53.0835 60.1457 59.6452 53.5841 59.6452 45.4999C59.6452 44.5047 59.5427 43.5219 59.3516 42.5661C59.223 41.923 59.64 41.2974 60.2831 41.1688Z" fill="#40455C"/>
</svg>
