<svg width="90" height="91" viewBox="0 0 90 91" fill="none" xmlns="http://www.w3.org/2000/svg">
<rect x="0.5" y="1" width="89" height="89" rx="9.5" fill="#68708C" fill-opacity="0.05"/>
<rect x="0.5" y="1" width="89" height="89" rx="9.5" stroke="#E1E3EA"/>
<path d="M73.5535 71.0499L71.4535 68.9499C72.5327 67.3165 73.1744 65.3331 73.1744 63.2331C73.1744 57.4581 68.5077 52.7915 62.7327 52.7915C56.9577 52.7915 52.291 57.4581 52.291 63.2331C52.291 69.0081 56.9577 73.6749 62.7327 73.6749C64.8619 73.6749 66.816 73.0332 68.4493 71.954L70.5493 74.054C70.9577 74.4624 71.5119 74.6665 72.0369 74.6665C72.591 74.6665 73.116 74.4624 73.5243 74.054C74.3702 73.2082 74.3702 71.8665 73.5535 71.0499Z" fill="#40455C"/>
<path opacity="0.4" d="M15.9207 53.1709C15.9207 53.2584 15.8623 53.3751 15.8623 53.4626C18.5456 58.8293 22.9207 63.2334 28.2873 65.8875C28.3748 65.8875 28.4915 65.8292 28.579 65.8292C27.5873 62.4459 26.829 58.975 26.2748 55.5042C22.7748 54.9209 19.304 54.1626 15.9207 53.1709Z" fill="#40455C"/>
<path opacity="0.4" d="M65.6212 29.2543C62.8796 23.5084 58.2421 18.8709 52.5254 16.1584C53.5754 19.6293 54.4504 23.1876 55.0337 26.746C58.5921 27.3293 62.1504 28.1751 65.6212 29.2543Z" fill="#40455C"/>
<path opacity="0.4" d="M15.6289 29.2541C19.1289 28.2041 22.6873 27.3292 26.2456 26.7458C26.8289 23.275 27.5581 19.8333 28.5498 16.45C28.4623 16.45 28.3456 16.3916 28.2581 16.3916C22.7747 19.1041 18.3122 23.6833 15.6289 29.2541Z" fill="#40455C"/>
<path opacity="0.4" d="M50.3081 26.1333C49.6081 22.3416 48.7331 18.55 47.4789 14.875C47.4206 14.6708 47.4206 14.4958 47.3914 14.2625C45.2331 13.7375 42.9581 13.3875 40.6248 13.3875C38.2623 13.3875 36.0164 13.7083 33.8289 14.2625C33.7998 14.4667 33.8289 14.6416 33.7706 14.875C32.5456 18.55 31.6414 22.3416 30.9414 26.1333C37.3872 25.4333 43.8623 25.4333 50.3081 26.1333Z" fill="#40455C"/>
<path opacity="0.4" d="M25.6335 31.4417C21.8127 32.1417 18.0502 33.0167 14.3752 34.2708C14.171 34.3292 13.996 34.3292 13.7627 34.3583C13.2377 36.5167 12.8877 38.7917 12.8877 41.125C12.8877 43.4875 13.2085 45.7333 13.7627 47.9208C13.9668 47.95 14.1418 47.9209 14.3752 47.9792C18.0502 49.2042 21.8127 50.1084 25.6335 50.8084C24.9335 44.3625 24.9335 37.8875 25.6335 31.4417Z" fill="#40455C"/>
<path opacity="0.4" d="M67.4587 34.3583C67.2545 34.3583 67.0796 34.3292 66.8462 34.2708C63.1712 33.0458 59.3796 32.1417 55.5879 31.4417C56.3171 37.8875 56.3171 44.3625 55.5879 50.7792C59.3796 50.0792 63.1712 49.2042 66.8462 47.95C67.0504 47.8917 67.2254 47.9209 67.4587 47.8917C67.9837 45.7042 68.3337 43.4583 68.3337 41.0958C68.3337 38.7916 68.0129 36.5458 67.4587 34.3583Z" fill="#40455C"/>
<path opacity="0.4" d="M30.9414 56.1165C31.6414 59.9373 32.5164 63.6997 33.7706 67.3747C33.8289 67.5789 33.7998 67.7539 33.8289 67.9872C36.0164 68.5122 38.2623 68.8623 40.6248 68.8623C42.9581 68.8623 45.2331 68.5414 47.3914 67.9872C47.4206 67.7831 47.4206 67.6081 47.4789 67.3747C48.7039 63.6997 49.6081 59.9373 50.3081 56.1165C47.0998 56.4665 43.8623 56.7289 40.6248 56.7289C37.3873 56.6998 34.1497 56.4665 30.9414 56.1165Z" fill="#40455C"/>
<path opacity="0.4" d="M30.2715 30.771C29.3965 37.6543 29.3965 44.596 30.2715 51.5085C37.1548 52.3835 44.0965 52.3835 51.009 51.5085C51.884 44.6251 51.884 37.6835 51.009 30.771C44.0965 29.896 37.1548 29.896 30.2715 30.771Z" fill="#40455C"/>
</svg>
